<?xml version="1.0" encoding="iso-8859-1"?>
<!-- Generator: Adobe Illustrator 19.0.0, SVG Export Plug-In . SVG Version: 6.00 Build 0)  -->
<svg version="1.1" id="Layer_1" xmlns="http://www.w3.org/2000/svg" xmlns:xlink="http://www.w3.org/1999/xlink" x="0px" y="0px"
	 viewBox="0 0 493.456 493.456" style="enable-background:new 0 0 493.456 493.456;" xml:space="preserve">
<g>
	<g>
		<path d="M246.73,0C110.682,0,0.002,110.68,0.002,246.732s110.68,246.724,246.728,246.724s246.724-110.668,246.724-246.724
			S382.778,0,246.73,0z M362.398,254.552c0,4.152-3.124,7.604-7.284,7.604h-88.972c-2.12,0-3.98,1.656-3.98,3.772v89.188
			c0,4.144-3.264,7.296-7.4,7.296h-15.716c-4.156,0-7.744-3.152-7.744-7.296v-89.188c0-2.116-1.516-3.772-3.644-3.772h-88.8
			c-4.152,0-7.804-3.452-7.804-7.604v-15.716c0-4.14,3.652-7.528,7.804-7.528h88.8c2.128,0,3.644-1.724,3.644-3.856v-88.608
			c0-4.152,3.584-7.796,7.744-7.796h15.716c4.132,0,7.4,3.644,7.4,7.796v88.608c0,2.132,1.712,3.856,3.856,3.856h89.096
			c4.16,0,7.284,3.388,7.284,7.528V254.552z"/>
	</g>
</g>
<g>
</g>
<g>
</g>
<g>
</g>
<g>
</g>
<g>
</g>
<g>
</g>
<g>
</g>
<g>
</g>
<g>
</g>
<g>
</g>
<g>
</g>
<g>
</g>
<g>
</g>
<g>
</g>
<g>
</g>
</svg>
