<?xml version="1.0" encoding="iso-8859-1"?>
<!-- Generator: Adobe Illustrator 19.0.0, SVG Export Plug-In . SVG Version: 6.00 Build 0)  -->
<svg version="1.1" id="Layer_1" xmlns="http://www.w3.org/2000/svg" xmlns:xlink="http://www.w3.org/1999/xlink" x="0px" y="0px"
	 viewBox="0 0 512 512" style="enable-background:new 0 0 512 512;" xml:space="preserve">
<g>
	<g>
		<path d="M135.837,292.571v146.286h240.327V292.571H135.837z M344.816,407.51H167.184v-83.592h177.633V407.51z"/>
	</g>
</g>
<g>
	<g>
		<path d="M0,10.449v125.388h31.347v365.714h449.306V135.837H512V10.449H0z M449.306,470.204H62.694V135.837h386.612V470.204z
			 M480.653,104.49H31.347V41.796h449.306V104.49z"/>
	</g>
</g>
<g>
	<g>
		<path d="M329.143,167.184H182.857c-25.927,0-47.02,21.093-47.02,47.02s21.093,47.02,47.02,47.02h146.286
			c25.927,0,47.02-21.093,47.02-47.02S355.07,167.184,329.143,167.184z M329.143,229.878H182.857
			c-8.642,0-15.674-7.031-15.674-15.673s7.031-15.673,15.674-15.673h146.286c8.642,0,15.673,7.031,15.673,15.673
			S337.785,229.878,329.143,229.878z"/>
	</g>
</g>
<g>
</g>
<g>
</g>
<g>
</g>
<g>
</g>
<g>
</g>
<g>
</g>
<g>
</g>
<g>
</g>
<g>
</g>
<g>
</g>
<g>
</g>
<g>
</g>
<g>
</g>
<g>
</g>
<g>
</g>
</svg>
