<?xml version="1.0" encoding="iso-8859-1"?>
<!-- Generator: Adobe Illustrator 19.0.0, SVG Export Plug-In . SVG Version: 6.00 Build 0)  -->
<svg version="1.1" id="Layer_1" xmlns="http://www.w3.org/2000/svg" xmlns:xlink="http://www.w3.org/1999/xlink" x="0px" y="0px"
	 viewBox="0 0 512.001 512.001" style="enable-background:new 0 0 512.001 512.001;" xml:space="preserve">
<path style="fill:#D5C9B3;" d="M47.796,131.878v352.347h416.409V131.878H47.796z M336.079,227.973H175.921v-48.047h160.159V227.973z
	"/>
<polygon style="fill:#CBBBA0;" points="296.039,131.878 296.039,179.925 336.079,179.925 336.079,227.973 296.039,227.973 
	296.039,484.225 464.205,484.225 464.205,131.878 "/>
<rect x="47.797" y="436.18" style="fill:#5EBAE7;" width="416.407" height="48.045"/>
<rect x="296.036" y="436.18" style="fill:#36A9E1;" width="168.168" height="48.045"/>
<rect x="7.755" y="27.776" style="fill:#D5C9B3;" width="496.489" height="104.104"/>
<rect x="320.059" y="27.776" style="fill:#CBBBA0;" width="184.176" height="104.104"/>
<g>
	<path style="fill:#1D1D1B;" d="M512,20.02H0v119.614h40.039v352.347h431.923V139.634h40.039L512,20.02L512,20.02z M456.45,476.469
		h-400.9V139.634h400.9V476.469z M496.488,124.122H15.512V35.532h480.977V124.122z"/>
	<path style="fill:#1D1D1B;" d="M343.835,235.729h-175.67V172.17h175.67V235.729z M183.677,220.217h144.647v-32.535H183.677V220.217
		z"/>
	<rect x="167.909" y="260.256" style="fill:#1D1D1B;" width="176.172" height="15.512"/>
</g>
<rect x="167.909" y="292.283" style="fill:#FFFFFF;" width="104.104" height="15.512"/>
<g>
	<rect x="167.909" y="324.32" style="fill:#1D1D1B;" width="48.045" height="15.512"/>
	<rect x="231.973" y="324.32" style="fill:#1D1D1B;" width="64.063" height="15.512"/>
	<rect x="312.055" y="324.32" style="fill:#1D1D1B;" width="32.032" height="15.512"/>
	<rect x="167.909" y="356.357" style="fill:#1D1D1B;" width="16.015" height="15.512"/>
</g>
<rect x="199.946" y="356.357" style="fill:#FFFFFF;" width="16.015" height="15.512"/>
<rect x="231.973" y="356.357" style="fill:#1D1D1B;" width="16.015" height="15.512"/>
<rect x="264.01" y="356.357" style="fill:#FFFFFF;" width="16.015" height="15.512"/>
<rect x="296.036" y="356.357" style="fill:#1D1D1B;" width="16.015" height="15.512"/>
<rect x="328.073" y="356.357" style="fill:#FFFFFF;" width="16.015" height="15.512"/>
<g>
</g>
<g>
</g>
<g>
</g>
<g>
</g>
<g>
</g>
<g>
</g>
<g>
</g>
<g>
</g>
<g>
</g>
<g>
</g>
<g>
</g>
<g>
</g>
<g>
</g>
<g>
</g>
<g>
</g>
</svg>
