<?xml version="1.0" encoding="iso-8859-1"?>
<!-- Generator: Adobe Illustrator 16.0.0, SVG Export Plug-In . SVG Version: 6.00 Build 0)  -->
<!DOCTYPE svg PUBLIC "-//W3C//DTD SVG 1.1//EN" "http://www.w3.org/Graphics/SVG/1.1/DTD/svg11.dtd">
<svg version="1.1" id="Capa_1" xmlns="http://www.w3.org/2000/svg" xmlns:xlink="http://www.w3.org/1999/xlink" x="0px" y="0px"
	 width="42.826px" height="42.825px" viewBox="0 0 42.826 42.825" style="enable-background:new 0 0 42.826 42.825;"
	 xml:space="preserve">
<g>
	<g>
		<path d="M28.861,38.973v-1.903h-9.463c-2.616,0-4.745-2.13-4.745-4.746c0-2.617,2.129-4.746,4.745-4.746h9.463v-1.951
			c0-1.905,1.254-2.901,2.492-2.901c0.521,0,1.312,0.17,2.129,0.986l1.813,1.811V2.762C35.295,1.24,34.058,0,32.536,0H6.259
			C4.737,0,3.498,1.239,3.498,2.762v37.3c0,1.521,1.239,2.763,2.762,2.763H31.57l-1.779-1.552
			C29.367,40.905,28.861,40.203,28.861,38.973z M6.259,41.057c-0.547,0-0.992-0.444-0.992-0.992V2.762
			c0-0.548,0.445-0.993,0.992-0.993h26.277c0.547,0,0.99,0.445,0.99,0.993v18.771c-0.836-0.469-1.613-0.582-2.176-0.582
			c-2.117,0-4.263,1.604-4.263,4.671v0.183h-7.692c-3.592,0-6.515,2.924-6.515,6.518c0,3.592,2.923,6.516,6.515,6.516h7.692v0.137
			c0,0.765,0.138,1.461,0.406,2.082H6.259z"/>
		<path d="M38.521,30.564l-5.896-5.897c-0.455-0.45-0.922-0.68-1.392-0.68c-0.721,0-1.446,0.573-1.446,1.854v2.998H19.281
			c-2.041,0-3.701,1.658-3.701,3.699c0,2.039,1.66,3.699,3.701,3.699h10.509v2.951c0,1.281,0.727,1.855,1.445,1.855
			c0.473,0,0.938-0.229,1.391-0.683l5.896-5.896C39.596,33.395,39.596,31.643,38.521,30.564z M37.269,33.219l-5.711,5.713v-4.461
			H19.281c-1.065,0-1.932-0.867-1.932-1.932s0.866-1.932,1.932-1.932h12.277V26.1l5.711,5.715
			C37.656,32.201,37.656,32.832,37.269,33.219z"/>
	</g>
</g>
<g>
</g>
<g>
</g>
<g>
</g>
<g>
</g>
<g>
</g>
<g>
</g>
<g>
</g>
<g>
</g>
<g>
</g>
<g>
</g>
<g>
</g>
<g>
</g>
<g>
</g>
<g>
</g>
<g>
</g>
</svg>
