<svg id="ffd36845-8ebc-4893-96db-86838c46ce96" data-name="Layer 1" xmlns="http://www.w3.org/2000/svg" width="865.76" height="682.89" viewBox="0 0 865.76 682.89"><rect x="280.63" y="78.8" width="340.37" height="570.79" rx="28.56" fill="#2f2e41"/><path d="M306,85.71h289.6a19.55,19.55,0,0,1,19.55,19.55V607a0,0,0,0,1,0,0H286.46a0,0,0,0,1,0,0V105.27A19.55,19.55,0,0,1,306,85.71Z" fill="#fff"/><rect x="312.06" y="104.3" width="44.87" height="7.92" rx="3.96" fill="#d1d3d4"/><rect x="312.06" y="118.71" width="44.87" height="7.92" rx="3.96" fill="#d1d3d4"/><rect x="312.06" y="133.12" width="44.87" height="7.92" rx="3.96" fill="#d1d3d4"/><rect x="312.06" y="156.55" width="278.31" height="72.26" rx="36.13" fill="#d1d3d4"/><circle cx="359.33" cy="191.92" r="25.58" fill="#fff"/><rect x="404.66" y="168.86" width="99.31" height="3.63" fill="#fff"/><rect x="404.66" y="180.08" width="75.89" height="3.63" fill="#fff"/><rect x="404.66" y="191.3" width="99.31" height="3.63" fill="#fff"/><rect x="485.5" y="180.08" width="53.45" height="3.63" fill="#fff"/><circle cx="430.63" cy="212.97" r="4.52" fill="#fff"/><circle cx="458.84" cy="212.97" r="4.52" fill="#fff"/><circle cx="485.5" cy="212.97" r="4.52" fill="#fff"/><rect x="521.65" y="16.37" width="267.69" height="140.18" rx="19.74" fill="#bcbec0"/><rect x="612.24" y="47.34" width="73.65" height="6.43" fill="#fff"/><rect x="612.24" y="68.97" width="157.81" height="7.01" fill="#fff"/><rect x="612.24" y="85.71" width="120.4" height="5.47" fill="#fff"/><circle cx="585.36" cy="131.52" r="7.2" fill="#fff"/><circle cx="630.95" cy="131.52" r="7.2" fill="#fff"/><circle cx="673.21" cy="131.52" r="7.2" fill="#fff"/><circle cx="564.84" cy="71.49" r="24.65" fill="#fff"/><path d="M559.6,57.86a3.07,3.07,0,0,1,1.27.82l.14.17c.93,1.3,1.87,2.59,2.79,3.9a2.35,2.35,0,0,1-.1,3,2.08,2.08,0,0,1-1.25.72,2.52,2.52,0,0,0-1.73,1.1,2.09,2.09,0,0,0-.32,1.38,8.21,8.21,0,0,0,1.31,3.56,11.31,11.31,0,0,0,3.07,3.39,3.19,3.19,0,0,0,1.76.74,2.26,2.26,0,0,0,2.12-1.08,2.69,2.69,0,0,1,1.26-1.19,2.31,2.31,0,0,1,2.67.69c.58.73,1.11,1.5,1.66,2.26s1,1.37,1.46,2.1a2.41,2.41,0,0,1-.38,2.92,4.18,4.18,0,0,1-.5.43c-.76.55-1.54,1.08-2.29,1.65a3.51,3.51,0,0,1-2.67.67,8.41,8.41,0,0,1-2.91-1,20.65,20.65,0,0,1-4.79-3.68,34.38,34.38,0,0,1-6-8,22,22,0,0,1-2.55-6.91,8.51,8.51,0,0,1,0-3.22A3.49,3.49,0,0,1,555.1,60c.69-.46,1.36-.95,2-1.45a3,3,0,0,1,2-.75Z" fill="#bcbec0"/><rect x="312.06" y="246.39" width="278.31" height="216.91" rx="65.12" fill="#d1d3d4"/><polygon points="562.71 194.93 562.71 150.38 592.57 150.38 562.71 194.93" fill="#bcbec0"/><rect x="410.49" y="296" width="142.97" height="11" fill="#fff"/><rect x="410.49" y="318.54" width="142.97" height="11" fill="#fff"/><rect x="410.49" y="380.24" width="142.97" height="11" fill="#fff"/><rect x="410.49" y="402.79" width="142.97" height="11" fill="#fff"/><path d="M394.17,291.55a13.11,13.11,0,0,1-.58-1.94c-1.51-7.54-6.92-11.82-11.75-14.2a23.62,23.62,0,0,0-33.37,14.43C343.63,309.19,371,336.91,371,336.91,397.28,307.74,395.34,294.79,394.17,291.55ZM371,312.71a15.84,15.84,0,1,1,15.84-15.83A15.84,15.84,0,0,1,371,312.71Z" fill="#fff"/><circle cx="371.32" cy="392.45" r="23.43" fill="#fff"/><polygon points="386.85 395.75 370.55 395.75 370.55 376.94 372.09 376.94 372.09 394.21 386.85 394.21 386.85 395.75" fill="#d1d3d4"/><path d="M400.93,482.83H500.7A114.47,114.47,0,0,1,615.17,597.31V607a0,0,0,0,1,0,0H286.46a0,0,0,0,1,0,0v-9.71A114.47,114.47,0,0,1,400.93,482.83Z" fill="#d1d3d4"/><circle cx="451.85" cy="546.94" r="37.5" fill="#fff"/><path d="M446.22,566.73a1.53,1.53,0,0,1-1.15-.52l-17.78-19.9a1.54,1.54,0,1,1,2.3-2.06l16.56,18.55,27.9-35.07a1.54,1.54,0,1,1,2.41,1.92l-29,36.49a1.58,1.58,0,0,1-1.17.59Z" fill="#d1d3d4"/><path d="M235.49,637.75l3.28,9.32c11.39,4.55,13.31,5.82,13.2,18.62h-40.6c-.71-2.53-1.38-20-1.09-25.2Z" fill="#dc5d5a"/><path d="M209.88,661.31h42.79c.47,4.83-.75,5.22-.75,5.22H211.37S210.21,665.69,209.88,661.31Z" fill="#2f2e41"/><path d="M231,625.69,228.29,403.2c-24.38,2.49-73.17,2.49-97.54,0L128,625.69s-4.93,4.37-4.93,6.58c0,1.85-.08,6.49.56,8.22,0,0,12,1.09,14.78,1.68s9.87-1.68,9.87-1.68c2-5.43,27.92-194.41,29.57-203.85a8.27,8.27,0,0,1,3.36,0c1.78,10.24,27.52,197.63,29.67,203.85,0,0,7.13,2.19,9.87,1.68s14.8-1.68,14.8-1.68c.62-1.72.58-6.42.54-8.26C236,630.06,231,625.69,231,625.69Z" fill="#2f2e41"/><path d="M249.62,277.37s15.57,7.18,20.77,10.78S274.34,305.38,276,313c3.68,13.86,3.34,12.66-3.11,20,0,0,2,19.18,2.79,34s-7.2,20-13.59,24c-8.61,7.84-46.23,4.14-50.3-6-1.19-2.81-12.38-33.53-7.59-51.11s20.78-55.11,28.36-59.12S249.62,277.37,249.62,277.37Z" fill="#d1d3d4"/><path d="M129,384.46l-2.79,20S141.79,414,153.37,418s25.22,7.2,25.22,7.2l3.2-6.73,2.4,7.59c8.11.28,37.31-15.93,47.13-23.21.74-8.42-7.37-140.68-8-153.37l-30.27-13.17c-30.16,2.63-25.21-1-52.09,14.75Z" fill="#fff"/><path d="M211.51,244.37l-18.6-8.08-29.57,2.39L152,245C163.64,286.28,196.5,287.11,211.51,244.37Z" fill="#f9b499"/><path d="M162.55,241.31c15.34,18.92,22.88,19.37,35.07-5.05l-34.28,2.42S159.57,237.46,162.55,241.31Z" fill="#f4a790"/><path d="M192.91,236.29s-.79,171.74.4,172.12c4.89-1.62,41.82-14.38,44.77-20.75l.79-64.31s12.38,8,16,8.79,14.78-1.19,15.57-5.6c-2.89-15.63-18.52-58.17-27.6-76.74C239.19,245,197.47,237.52,192.91,236.29Z" fill="#dc5d5a"/><path d="M193.31,271.43l4.39-6.38s10.78,9.19,12,6-7-29-8.41-34-8.78-4.8-9.18-2.8S193.31,271.43,193.31,271.43Z" fill="#fff" opacity="0.2"/><path d="M215.68,241.47c-1.57,47.09-1.08,81.18,23.16,127,2.3-15.62-8.3-41.62-12.38-66.25-1.6-11.59-1.2-57.91-1.2-57.91Z" fill="#d1d3d4"/><path d="M166.89,241.74s.64,161.06.64,163.31-3.53,1-6.09-.32-28.24-10-35.32-12.83-8-1-7.7-4.17c0-11.52,1.73-39.49,2.57-49.73,0,0-15.14,5.44-24.07,1.91S83.77,332.23,84.75,329s18-44.92,19.25-48.77,4.49-25.66,6.43-27.58c6.13-2.51,47.85-14.79,53.88-16.37C165.27,236.29,166.25,235.66,166.89,241.74Z" fill="#dc5d5a"/><path d="M162.4,234.06a15.65,15.65,0,0,0-3.21,6.41c-2,10.66-5.73,20.83-9.93,30.79,3.68,1.86,12.17-4.53,13.47-4.81l3.84,4.19C165.52,267.69,170.38,228.87,162.4,234.06Z" fill="#fff" opacity="0.2"/><path d="M153.42,209s-5.15-6.73-5.47-2.89c-1.23,6.17-.28,12.9,5.79,16,3.95,11.55,18.75,37.37,35.92,24.63,2-1.4,9.3-12.52,10.28-14.77s1.27-10.26,1.27-10.26,5.45-7.7,5.77-11.87c.35-6.38-.44-7.13-4.57-6.73,4.51-18.58,7.53-25.74-13.15-41-15-9.63-44,5.13-43.31,20.86C147.87,187.12,153.42,209,153.42,209Z" fill="#f9b499"/><path d="M93.11,327.82c21.11.08,28.8-9.45,29.5,19.88C111.7,363.38,103,369,82.83,358.3c-3.53-2.88-6.41-16.05-4.49-20.54s6.09-7.38,7.7-9" fill="#dc5d5a"/><polygon points="143.07 288.4 152.95 329.22 171.58 325.11 163.63 285.37 143.07 288.4" fill="#2f2e41"/><path d="M132.56,326.14l5.45-5.45c1.57-6.62,3.75-13.12,8.34-18.28l1.28,4.17s12.19-5.47,14.13-5.47a2.78,2.78,0,0,1,2.55,2.9c0,.95-13.45,7.38-13.45,7.38l-1.6,2.24c2.26-.47,14-6.32,17.63-7.45,2,2.67.6,4.38-.32,6.72.46,5.15-6.15,9.4-10.6,15.09-2.25,2.25-10.26,4.17-10.26,4.17l-15.13,9.62C127.87,340.15,127.13,329.08,132.56,326.14Z" fill="#f9b499"/><path d="M135.12,322.91c-6.57,6.92-2.72,16.79,0,22.79-5.2,2.46-11.92,13.25-17.33,5.45-1.93-4.17-5-13.46-3.85-18.92s3.86-7.07,5.15-7.39S132.88,323.25,135.12,322.91Z" fill="#dc5d5a"/><path d="M135.12,322.91c-6.57,6.92-2.72,16.79,0,22.79-5.2,2.46-11.92,13.25-17.33,5.45-1.93-4.17-5-13.46-3.85-18.92s3.86-7.07,5.15-7.39S132.88,323.25,135.12,322.91Z" opacity="0.2"/><path d="M238.05,303.79c-1.19-2.53-6.82-25.1-14-25.16-1.19,0-8.41-2-10.39-2-5.25.21-5.51,3.66-4,8.39-.18,4.2-2.64,8.76,2.39,12.38a28.36,28.36,0,0,0,1.19,6.39c.81,1.59,13.59,5.19,13.59,5.19l1.2,1.6,2.38,1.2Z" fill="#f9b499"/><path d="M244.82,311s10.8,6,14,7.2,7.2,1.6,11.59,8.41,2.79,18,0,24-12,7.51-17.91,7.51c-7.55-.29-21.21-25.72-23.55-29.95Z" fill="#dc5d5a"/><path d="M239.64,301.38c-4.31,1.21-18.08,14.59-18.31,20.77,0,2.39,6.73,11.59,6.73,11.59l20.77-21.56S244.07,304.27,239.64,301.38Z" fill="#dc5d5a"/><path d="M239.64,301.38c-4.31,1.21-18.08,14.59-18.31,20.77,0,2.39,6.73,11.59,6.73,11.59l20.77-21.56S244.07,304.27,239.64,301.38Z" opacity="0.2"/><path d="M123.08,637.75l-3.37,9.32c-11.38,4.55-13.29,5.84-13.18,18.62h40.66c.71-2.53,1.38-20,1.1-25.2Z" fill="#dc5d5a"/><path d="M147.68,661.31H106.8c-.16,2.39-.17,4.38-.17,4.38h40.56S147.43,663.82,147.68,661.31Z" fill="#2f2e41"/><ellipse cx="153.87" cy="211.56" rx="6.81" ry="11.33" fill="#f9b499"/><ellipse cx="201.82" cy="211.56" rx="6.81" ry="11.33" fill="#f9b499"/><path d="M189.34,162.19c-14.91-9.65-44.06,5.16-43.31,20.86,1.92,4.12,7.39,26,7.39,26,9.11,0-2.94-12.54,11.84-12.78-1.69,1.09-3.82,3.13-1.26,4.31,4.17,1.91,6.72-1,15.4-5.47s9.62-9,9.62-9c8.91,6.56-1.22,17.19,9.94,18.3-1.13,6.42,3.66,5.82,3.75-1.3h-.22C207,184.5,210.06,177.48,189.34,162.19Z" fill="#2f2e41"/></svg>