<svg id="b2ba694a-7a79-42a7-b5af-aba730640a65" data-name="Layer 1" xmlns="http://www.w3.org/2000/svg" width="865.76" height="682.89" viewBox="0 0 865.76 682.89"><path d="M682.18,147c36.74,1.62,40.67,30.46,40.67,30.46V625.9s-.35,32.49-45.6,33.21H458.75s-38.12,0-35.31-39.72l-2.75-447.81a23.25,23.25,0,0,1,23-23.64Z" fill="#bcbec0"/><path d="M668.64,668.77h-221a37.13,37.13,0,0,1-37.13-37.13v-450a36,36,0,0,1,36-36l223.29-1c19.87,0,36,17.07,36,37v450A37.12,37.12,0,0,1,668.64,668.77Z" fill="#d1d3d4"/><rect x="438.87" y="195.39" width="246.9" height="390.16" rx="15.1" fill="#fff"/><path d="M210.22,205.1c-6.91-11.11-24.87-45-8.44-75.52h0c.19-.32,9.39-15.81,3.63-32.36,0,0-18.54-49.09,29.81-74.54h0c.57-.26,46-21.29,70.53,3.64h0c.44.37,22.44,19.06,13.45,70.51,0,0,0,0,0,.05a47,47,0,0,0-2.54,22.5v0c.22.73,7.89,26.6,1.84,37l0,.1c-.15,1.52-3.53,37,2.89,54.12v0c.21.73,15.49,53.86-8,61.8,0,0-66.91,25.09-78.54,6.91a78.1,78.1,0,0,1-9.43-20.28.31.31,0,0,0-.1-.13c-.83-.56-9-6.47-10.44-19.25a21.17,21.17,0,0,1,1.22-9.59c.72-2,1.18-5.83-.64-12.83A44.21,44.21,0,0,0,210.22,205.1Z" fill="#2f2e41"/><path d="M219.42,330.29s-3.82-26,22.36-48.45h72.91s11.91,23.36,10.54,43.81L308.22,639s-14.62-4.09-24.71,0l-6.72-291.18a4.27,4.27,0,0,0-4.27-4.17h0a4.26,4.26,0,0,0-4.09,3.07l-34.55,118L190.54,638.59l-20.15-1.94,48.76-285.09Z" fill="#2f2e41"/><circle cx="562.62" cy="617.4" r="18.54" fill="#fff"/><circle cx="597.61" cy="617.4" r="8.83" fill="#fff"/><circle cx="527.48" cy="617.4" r="8.83" fill="#fff"/><rect x="438.87" y="279.02" width="246.9" height="206.54" fill="#bcbec0"/><rect x="447.59" y="527.43" width="221.08" height="4.36" fill="#e4e4e4"/><rect x="447.59" y="549.25" width="221.08" height="4.36" fill="#e4e4e4"/><rect x="447.59" y="571.07" width="221.08" height="4.36" fill="#e4e4e4"/><path d="M466.23,512.19s4.85-4.85,7.28-7.15a13.6,13.6,0,0,0,2.52-3.22c1.06-1.92,1.9-4.61.2-6.85a5.08,5.08,0,0,0-2.85-1.85c-1.81-.45-4.83-.37-7.15,3.79,0,0-3.43-5.89-8.42-3.29,0,0-4.9,2.28-1.43,8.34a13.45,13.45,0,0,0,2.34,3Z" fill="#d1d3d4"/><path d="M499.89,495.13h-9a7,7,0,0,0-7,7v.61a7,7,0,0,0,7,7h1.58l5.83,4.66a.21.21,0,0,0,.34-.22l-1.29-4.44h2.51a7,7,0,0,0,7-7v-.61A7,7,0,0,0,499.89,495.13Z" fill="#d1d3d4"/><path d="M568.79,304.38s-6.84-9.27-24.29-1.91c0,0-21.68,9.92-20.29,30.18a24.51,24.51,0,0,0,1.67,7.2c1.3,3.36,3.16,10.95-4.56,14.71,0,0-13.09,6-9,19.91,0,0,2.29,5.85,5.61,9.13a8.89,8.89,0,0,1,2.71,6.3c0,2.83-1.11,6.52-5.32,10.2,0,0-24.82,16.09-6.55,38.73l112,3.74S635.5,421.2,609.68,402c0,0-7.37-6-2.73-17.15,0,0,9.61-16-3.14-29.83q-.28-.31-.6-.6c-.72-.68-3.2-3.65-2.26-11.84C601,342.56,604.76,297.8,568.79,304.38Z" fill="#2f2e41"/><path d="M552.32,386.65s8.51,22.54-19.57,29.09l29,10.18,32.81-12.5s-23.72,3.41-19.72-28.95Z" fill="#f9b499"/><path d="M592.77,339c5.25,36.78-10.88,48.12-21.46,51.62a24.26,24.26,0,0,1-15.14,0c-29.09-9.53-22.85-46.41-22.85-46.41s28.09.27,43.36-17.18Z" fill="#f9b499"/><rect x="502.31" y="167.84" width="122.3" height="15.87" rx="7.26" fill="#fff"/><path d="M442.05,141.63s10.84-7,20.44-7.28a22.27,22.27,0,0,0,3.16-.33c3.71-.62,13.06-1,16.48,10.57H449.05s-5.09-.35-7.88,1.1Z" fill="#f9b499"/><path d="M205.74,297.05S215.37,312.18,225,317c0,0,17.2,12,21-4.13,0,0,7.22-16.86-20.13-13.76l-11.18-10.32Z" fill="#f9b499"/><path d="M215.24,196.11l26.54,85.73h72.91V226.29s18.54-4,15.27-21.27c0,0-2-12.36-5.63-20.54l53.33-11.4s10.18-1.45,12.36-2.78l30.66-8.85,23.73-7.06-1.36-15.82-66.27,12.82-87.73-3.27-30,.3-25,2.79s-21.37-2.82-33.91,11.63l-42.27,42.82s-19.36,21-13.91,29.45a45.3,45.3,0,0,0,8.18,12.55s42.54,45.54,53.73,53.45l13.09-10.64s-40.91-48-45.27-56.72c0,0,.27-3,4.36-6.82C178,226.93,199.6,204.57,215.24,196.11Z" fill="#dc5d5a"/><path d="M489.89,485.55,512,425.47s3.79-9.71,21.52-12.14a11.83,11.83,0,0,1,6.9,1.16c6.61,3.33,24.45,10,47.29-.22a11.7,11.7,0,0,1,6.83-.85c6.89,1.23,20.51,5.39,22.73,19.14l18.55,53H613.77l-9-23.27-.28,23.27H522.41L521,463.37l-7.9,22.18Z" fill="#dc5d5a"/><path d="M244.12,99.07s7.36,21.13,32.57,21.05l2.91,28h9.45l.21,13.55a21.74,21.74,0,0,1-21.74,22.08h0a21.72,21.72,0,0,1-18-9.57l-15.53-23,14.36-2-4.21-50.14" fill="#f9b499"/><path d="M278.27,135.35v-4.54s-18.55-1.39-25.76-19.65C252.51,111.16,256,131.73,278.27,135.35Z" fill="#f4a48e"/><ellipse cx="275.77" cy="86.66" rx="33.37" ry="44.24" transform="translate(-5.94 21.87) rotate(-4.49)" fill="#f9b499"/><path d="M237.57,74.13a21.41,21.41,0,0,0,14.76,4.07,22.79,22.79,0,0,0,14.44-7.28c6.4-6.86,21.77-22.26,30-21.69L285.59,32.15l-24.82,3.62s-45.17,9-45.6,9.55S237.57,74.13,237.57,74.13Z" fill="#2f2e41"/><ellipse cx="241.77" cy="91.43" rx="7.8" ry="9.62" transform="translate(-6.42 19.22) rotate(-4.49)" fill="#f9b499"/><path d="M279,654.1H321.4c2.37,0,3.4-3.31,1.51-4.89l-11.45-9.65a26.57,26.57,0,0,0-17.13-6.38h-.71c-6.36,0-11.95,4.66-13.58,11.4A36.71,36.71,0,0,0,279,654.1Z" fill="#d1d3d4"/><path d="M194.74,654.1H152.38c-2.38,0-3.4-3.31-1.52-4.89l11.46-9.65a26.53,26.53,0,0,1,17.13-6.38h.71c6.35,0,12,4.66,13.58,11.4A36.71,36.71,0,0,1,194.74,654.1Z" fill="#d1d3d4"/></svg>